<svg width="25" height="25" viewBox="0 0 25 25" fill="none" xmlns="http://www.w3.org/2000/svg">
<line y1="-1" x2="14.1163" y2="-1" transform="matrix(0.691905 -0.721988 0.691905 0.721988 2 24.6576)" stroke="white" stroke-width="2"/>
<path d="M25 8.54794C25 13.2688 21.3324 17.0959 16.8082 17.0959C12.284 17.0959 8.61646 13.2688 8.61646 8.54794C8.61646 3.82704 12.284 0 16.8082 0C21.3324 0 25 3.82704 25 8.54794ZM9.94524 8.54794C9.94524 12.5031 13.0179 15.7093 16.8082 15.7093C20.5986 15.7093 23.6712 12.5031 23.6712 8.54794C23.6712 4.59282 20.5986 1.38656 16.8082 1.38656C13.0179 1.38656 9.94524 4.59282 9.94524 8.54794Z" fill="white"/>
</svg>
